<svg xmlns="http://www.w3.org/2000/svg" xmlns:xlink="http://www.w3.org/1999/xlink" width="500" zoomAndPan="magnify" viewBox="0 0 375 374.999991" height="500" preserveAspectRatio="xMidYMid meet" version="1.0"><defs><g/><clipPath id="id1"><path d="M 75 136.199219 L 164.191406 136.199219 L 164.191406 250 L 75 250 Z M 75 136.199219 " clip-rule="nonzero"/></clipPath><clipPath id="id2"><path d="M 44.191406 160 L 91 160 L 91 201 L 44.191406 201 Z M 44.191406 160 " clip-rule="nonzero"/></clipPath></defs><rect x="-37.5" width="450" fill="#ffffff" y="-37.499999" height="449.999989" fill-opacity="1"/><rect x="-37.5" width="450" fill="#ffffff" y="-37.499999" height="449.999989" fill-opacity="1"/><rect x="-37.5" width="450" fill="#ffffff" y="-37.499999" height="449.999989" fill-opacity="1"/><g clip-path="url(#id1)"><path fill="#051d40" d="M 164.191406 151.910156 C 164.191406 160.589844 157.128906 167.625 148.417969 167.625 C 145.125 167.625 142.0625 166.617188 139.53125 164.894531 C 128.003906 171.976562 125.109375 181 124.382812 185.210938 C 126.855469 189.234375 128.28125 193.96875 128.28125 199.035156 C 128.28125 206.347656 125.3125 212.964844 120.515625 217.765625 C 120.671875 220.804688 121.933594 226.105469 128 231.144531 C 128.996094 231.015625 130.027344 231.050781 131.070312 231.269531 C 136.027344 232.316406 139.195312 237.167969 138.148438 242.109375 C 137.097656 247.050781 132.226562 250.207031 127.269531 249.160156 C 122.308594 248.117188 119.140625 243.265625 120.1875 238.324219 C 120.585938 236.453125 121.53125 234.839844 122.820312 233.613281 C 120.34375 226.71875 115.992188 223.878906 113.535156 222.785156 C 109.953125 224.570312 105.910156 225.582031 101.632812 225.582031 C 88.171875 225.582031 77.046875 215.640625 75.246094 202.726562 C 76.085938 202.671875 76.910156 202.480469 77.695312 202.148438 L 90.507812 196.683594 C 92.34375 195.898438 93.769531 194.449219 94.511719 192.597656 C 95.257812 190.746094 95.234375 188.71875 94.445312 186.886719 L 89.511719 175.402344 C 93.148438 173.550781 97.265625 172.496094 101.632812 172.496094 C 105.421875 172.496094 109.019531 173.289062 112.28125 174.707031 C 117.082031 173.730469 126.582031 170.160156 133.527344 157.101562 C 132.957031 155.476562 132.640625 153.734375 132.640625 151.917969 C 132.648438 143.234375 139.707031 136.199219 148.417969 136.199219 C 157.128906 136.199219 164.191406 143.234375 164.191406 151.910156 Z M 164.191406 151.910156 " fill-opacity="1" fill-rule="nonzero"/></g><g clip-path="url(#id2)"><path fill="#56aeff" d="M 89.976562 188.792969 C 90.542969 190.117188 89.925781 191.65625 88.59375 192.222656 L 75.785156 197.6875 C 74.453125 198.253906 72.910156 197.640625 72.339844 196.3125 L 66.855469 183.550781 C 66.285156 182.226562 66.902344 180.6875 68.234375 180.117188 L 81.042969 174.65625 C 82.375 174.089844 83.921875 174.703125 84.492188 176.03125 Z M 74.207031 161.554688 C 73.9375 160.925781 73.207031 160.632812 72.574219 160.902344 L 66.5 163.492188 C 65.871094 163.761719 65.578125 164.488281 65.847656 165.121094 L 68.449219 171.167969 C 68.71875 171.796875 69.449219 172.089844 70.082031 171.820312 L 76.15625 169.230469 C 76.785156 168.960938 77.078125 168.234375 76.808594 167.601562 Z M 63.324219 190.773438 C 63.082031 190.210938 62.425781 189.949219 61.859375 190.191406 L 56.417969 192.507812 C 55.855469 192.75 55.589844 193.402344 55.832031 193.964844 L 58.160156 199.386719 C 58.402344 199.949219 59.058594 200.210938 59.625 199.96875 L 65.066406 197.652344 C 65.628906 197.410156 65.894531 196.757812 65.652344 196.195312 Z M 57.820312 170.101562 C 57.394531 169.109375 56.238281 168.648438 55.238281 169.074219 L 45.648438 173.164062 C 44.648438 173.585938 44.1875 174.738281 44.617188 175.730469 L 48.722656 185.289062 C 49.148438 186.28125 50.304688 186.742188 51.300781 186.320312 L 60.894531 182.226562 C 61.894531 181.804688 62.355469 180.652344 61.929688 179.660156 Z M 57.820312 170.101562 " fill-opacity="1" fill-rule="nonzero"/></g><g fill="#051d40" fill-opacity="1"><g transform="translate(145.181685, 211.657076)"><g><path d="M 2.273438 0 L 10.316406 0 C 13.617188 0 16.316406 -2.699219 16.316406 -6.113281 C 16.316406 -7.703125 15.546875 -9.265625 14.210938 -10.175781 C 15.492188 -11.058594 16.03125 -12.648438 16.089844 -14.183594 C 16.171875 -17.765625 13.929688 -20.351562 10.316406 -20.351562 L 2.273438 -20.351562 Z M 6.367188 -16.289062 L 9.976562 -16.289062 C 11.144531 -16.289062 11.851562 -15.378906 11.851562 -14.242188 C 11.851562 -13.132812 11.144531 -12.195312 9.976562 -12.195312 L 6.367188 -12.195312 Z M 6.367188 -8.128906 L 9.976562 -8.128906 C 11.144531 -8.128906 12.023438 -7.25 12.023438 -6.113281 C 12.023438 -4.972656 11.144531 -4.066406 9.976562 -4.066406 L 6.367188 -4.066406 Z M 6.367188 -8.128906 "/></g></g></g><g fill="#051d40" fill-opacity="1"><g transform="translate(164.734015, 211.657076)"><g><path d="M 12.050781 0.285156 C 26.039062 0.285156 26.039062 -20.664062 12.050781 -20.664062 C -1.933594 -20.664062 -1.933594 0.285156 12.050781 0.285156 Z M 12.050781 -3.921875 C 3.921875 -3.921875 3.921875 -16.488281 12.050781 -16.488281 C 20.183594 -16.488281 20.183594 -3.921875 12.050781 -3.921875 Z M 12.050781 -3.921875 "/></g></g></g><g fill="#051d40" fill-opacity="1"><g transform="translate(190.708814, 211.657076)"><g><path d="M 12.050781 0.285156 C 26.039062 0.285156 26.039062 -20.664062 12.050781 -20.664062 C -1.933594 -20.664062 -1.933594 0.285156 12.050781 0.285156 Z M 12.050781 -3.921875 C 3.921875 -3.921875 3.921875 -16.488281 12.050781 -16.488281 C 20.183594 -16.488281 20.183594 -3.921875 12.050781 -3.921875 Z M 12.050781 -3.921875 "/></g></g></g><g fill="#051d40" fill-opacity="1"><g transform="translate(216.68361, 211.657076)"><g><path d="M 9.691406 0 L 9.691406 -16.257812 L 14.753906 -16.257812 L 14.753906 -20.296875 L 0.570312 -20.296875 L 0.570312 -16.257812 L 5.628906 -16.257812 L 5.628906 0 Z M 9.691406 0 "/></g></g></g><g fill="#051d40" fill-opacity="1"><g transform="translate(234.133011, 211.657076)"><g/></g></g><g fill="#051d40" fill-opacity="1"><g transform="translate(244.108482, 211.657076)"><g><path d="M 15.207031 -15.605469 L 15.691406 -19.785156 C 14.46875 -20.324219 13.105469 -20.578125 11.683594 -20.578125 C -2.074219 -20.578125 -2.101562 0.0585938 11.683594 0.0585938 C 13.105469 0.0585938 14.894531 -0.285156 16.144531 -0.796875 L 15.605469 -5.003906 C 14.835938 -4.605469 13.445312 -4.09375 11.683594 -4.09375 C 3.636719 -4.09375 3.636719 -16.488281 11.683594 -16.488281 C 13.445312 -16.488281 14.441406 -16.003906 15.207031 -15.605469 Z M 15.207031 -15.605469 "/></g></g></g><g fill="#051d40" fill-opacity="1"><g transform="translate(263.120871, 211.657076)"><g><path d="M 12.050781 0.285156 C 26.039062 0.285156 26.039062 -20.664062 12.050781 -20.664062 C -1.933594 -20.664062 -1.933594 0.285156 12.050781 0.285156 Z M 12.050781 -3.921875 C 3.921875 -3.921875 3.921875 -16.488281 12.050781 -16.488281 C 20.183594 -16.488281 20.183594 -3.921875 12.050781 -3.921875 Z M 12.050781 -3.921875 "/></g></g></g><g fill="#051d40" fill-opacity="1"><g transform="translate(289.095673, 211.657076)"><g><path d="M 12.050781 0.285156 C 26.039062 0.285156 26.039062 -20.664062 12.050781 -20.664062 C -1.933594 -20.664062 -1.933594 0.285156 12.050781 0.285156 Z M 12.050781 -3.921875 C 3.921875 -3.921875 3.921875 -16.488281 12.050781 -16.488281 C 20.183594 -16.488281 20.183594 -3.921875 12.050781 -3.921875 Z M 12.050781 -3.921875 "/></g></g></g><g fill="#051d40" fill-opacity="1"><g transform="translate(315.070476, 211.657076)"><g><path d="M 6.339844 0 L 6.339844 -7.761719 L 10.261719 -7.761719 C 18.136719 -7.761719 18.164062 -20.296875 10.261719 -20.296875 L 2.273438 -20.296875 L 2.273438 0 Z M 6.339844 -11.710938 L 6.339844 -16.257812 L 9.921875 -16.257812 C 12.648438 -16.257812 12.648438 -11.710938 9.921875 -11.710938 Z M 6.339844 -11.710938 "/></g></g></g></svg>