<svg xmlns="http://www.w3.org/2000/svg" xmlns:xlink="http://www.w3.org/1999/xlink" width="500" zoomAndPan="magnify" viewBox="0 0 375 374.999991" height="500" preserveAspectRatio="xMidYMid meet" version="1.0"><defs><clipPath id="id1"><path d="M 144 101.875 L 276.972656 101.875 L 276.972656 272 L 144 272 Z M 144 101.875 " clip-rule="nonzero"/></clipPath></defs><rect x="-37.5" width="450" fill="#ffffff" y="-37.499999" height="449.999989" fill-opacity="1"/><rect x="-37.5" width="450" fill="#ffffff" y="-37.499999" height="449.999989" fill-opacity="1"/><rect x="-37.5" width="450" fill="#ffffff" y="-37.499999" height="449.999989" fill-opacity="1"/><g clip-path="url(#id1)"><path fill="#051d40" d="M 276.972656 125.449219 C 276.972656 138.464844 266.425781 149.015625 253.410156 149.015625 C 248.488281 149.015625 243.917969 147.503906 240.136719 144.921875 C 222.914062 155.542969 218.589844 169.078125 217.507812 175.394531 C 221.203125 181.433594 223.332031 188.535156 223.332031 196.132812 C 223.332031 207.097656 218.898438 217.023438 211.730469 224.222656 C 211.960938 228.78125 213.851562 236.730469 222.910156 244.292969 C 224.394531 244.101562 225.941406 244.152344 227.492188 244.480469 C 234.902344 246.046875 239.636719 253.328125 238.066406 260.738281 C 236.5 268.148438 229.222656 272.882812 221.816406 271.316406 C 214.410156 269.746094 209.675781 262.46875 211.242188 255.058594 C 211.835938 252.253906 213.25 249.835938 215.175781 247.996094 C 211.472656 237.65625 204.972656 233.398438 201.304688 231.753906 C 195.953125 234.433594 189.917969 235.949219 183.523438 235.949219 C 163.417969 235.949219 146.800781 221.035156 144.109375 201.664062 C 145.367188 201.582031 146.597656 201.300781 147.769531 200.800781 L 166.90625 192.605469 C 169.652344 191.429688 171.777344 189.253906 172.890625 186.476562 C 174 183.699219 173.964844 180.660156 172.789062 177.910156 L 165.417969 160.683594 C 170.851562 157.90625 177 156.324219 183.523438 156.324219 C 189.183594 156.324219 194.558594 157.511719 199.429688 159.640625 C 206.601562 158.175781 220.792969 152.820312 231.164062 133.234375 C 230.3125 130.800781 229.84375 128.183594 229.84375 125.457031 C 229.851562 112.433594 240.402344 101.882812 253.410156 101.882812 C 266.425781 101.882812 276.972656 112.433594 276.972656 125.449219 Z M 276.972656 125.449219 " fill-opacity="1" fill-rule="nonzero"/></g><path fill="#56aeff" d="M 166.109375 180.765625 C 166.960938 182.757812 166.039062 185.0625 164.050781 185.914062 L 144.917969 194.109375 C 142.925781 194.960938 140.621094 194.035156 139.769531 192.046875 L 131.578125 172.90625 C 130.726562 170.917969 131.648438 168.609375 133.636719 167.757812 L 152.769531 159.566406 C 154.761719 158.714844 157.066406 159.636719 157.917969 161.625 Z M 142.558594 139.910156 C 142.15625 138.96875 141.0625 138.53125 140.121094 138.933594 L 131.046875 142.820312 C 130.101562 143.226562 129.667969 144.316406 130.070312 145.261719 L 133.957031 154.332031 C 134.359375 155.277344 135.449219 155.714844 136.394531 155.3125 L 145.46875 151.425781 C 146.410156 151.019531 146.847656 149.929688 146.445312 148.984375 Z M 126.300781 183.738281 C 125.9375 182.894531 124.960938 182.503906 124.113281 182.863281 L 115.988281 186.339844 C 115.144531 186.703125 114.75 187.683594 115.113281 188.527344 L 118.589844 196.65625 C 118.949219 197.5 119.929688 197.894531 120.773438 197.53125 L 128.902344 194.054688 C 129.746094 193.695312 130.140625 192.714844 129.777344 191.867188 Z M 118.082031 152.734375 C 117.445312 151.242188 115.714844 150.550781 114.222656 151.1875 L 99.898438 157.324219 C 98.40625 157.960938 97.714844 159.691406 98.355469 161.179688 L 104.492188 175.511719 C 105.128906 177.003906 106.855469 177.695312 108.34375 177.058594 L 122.671875 170.921875 C 124.164062 170.285156 124.855469 168.554688 124.21875 167.066406 Z M 118.082031 152.734375 " fill-opacity="1" fill-rule="nonzero"/></svg>