<svg xmlns="http://www.w3.org/2000/svg" xmlns:xlink="http://www.w3.org/1999/xlink" width="500" zoomAndPan="magnify" viewBox="0 0 375 374.999991" height="500" preserveAspectRatio="xMidYMid meet" version="1.0"><defs><g/><clipPath id="id1"><path d="M 75 136.199219 L 164.191406 136.199219 L 164.191406 250 L 75 250 Z M 75 136.199219 " clip-rule="nonzero"/></clipPath><clipPath id="id2"><path d="M 44.191406 160 L 91 160 L 91 201 L 44.191406 201 Z M 44.191406 160 " clip-rule="nonzero"/></clipPath></defs><rect x="-37.5" width="450" fill="#ffffff" y="-37.499999" height="449.999989" fill-opacity="1"/><rect x="-37.5" width="450" fill="#ffffff" y="-37.499999" height="449.999989" fill-opacity="1"/><rect x="-37.5" width="450" fill="#ffffff" y="-37.499999" height="449.999989" fill-opacity="1"/><rect x="-37.5" width="450" fill="#ffffff" y="-37.499999" height="449.999989" fill-opacity="1"/><g clip-path="url(#id1)"><path fill="#051d40" d="M 164.191406 151.910156 C 164.191406 160.589844 157.128906 167.625 148.417969 167.625 C 145.125 167.625 142.0625 166.617188 139.53125 164.894531 C 128.003906 171.976562 125.109375 181 124.382812 185.210938 C 126.855469 189.234375 128.28125 193.96875 128.28125 199.035156 C 128.28125 206.347656 125.3125 212.964844 120.515625 217.765625 C 120.671875 220.804688 121.933594 226.105469 128 231.144531 C 128.996094 231.015625 130.027344 231.050781 131.070312 231.269531 C 136.027344 232.316406 139.195312 237.167969 138.148438 242.109375 C 137.097656 247.050781 132.226562 250.207031 127.269531 249.160156 C 122.308594 248.117188 119.140625 243.265625 120.1875 238.324219 C 120.585938 236.453125 121.53125 234.839844 122.820312 233.613281 C 120.34375 226.71875 115.992188 223.878906 113.535156 222.785156 C 109.953125 224.570312 105.910156 225.582031 101.632812 225.582031 C 88.171875 225.582031 77.046875 215.640625 75.246094 202.726562 C 76.085938 202.667969 76.910156 202.480469 77.695312 202.148438 L 90.507812 196.683594 C 92.34375 195.898438 93.769531 194.449219 94.511719 192.597656 C 95.257812 190.746094 95.234375 188.71875 94.445312 186.886719 L 89.511719 175.402344 C 93.148438 173.550781 97.265625 172.496094 101.632812 172.496094 C 105.421875 172.496094 109.019531 173.289062 112.28125 174.707031 C 117.082031 173.730469 126.582031 170.160156 133.527344 157.101562 C 132.957031 155.476562 132.640625 153.734375 132.640625 151.917969 C 132.648438 143.234375 139.707031 136.199219 148.417969 136.199219 C 157.128906 136.199219 164.191406 143.234375 164.191406 151.910156 Z M 164.191406 151.910156 " fill-opacity="1" fill-rule="nonzero"/></g><g clip-path="url(#id2)"><path fill="#56aeff" d="M 89.976562 188.792969 C 90.542969 190.117188 89.925781 191.65625 88.59375 192.222656 L 75.785156 197.6875 C 74.453125 198.253906 72.910156 197.640625 72.339844 196.3125 L 66.855469 183.550781 C 66.285156 182.226562 66.902344 180.6875 68.234375 180.117188 L 81.042969 174.65625 C 82.375 174.089844 83.921875 174.703125 84.492188 176.03125 Z M 74.207031 161.554688 C 73.9375 160.925781 73.207031 160.632812 72.574219 160.902344 L 66.5 163.492188 C 65.871094 163.761719 65.578125 164.488281 65.847656 165.121094 L 68.449219 171.167969 C 68.71875 171.796875 69.449219 172.089844 70.082031 171.820312 L 76.15625 169.230469 C 76.785156 168.960938 77.078125 168.234375 76.808594 167.601562 Z M 63.324219 190.773438 C 63.082031 190.210938 62.425781 189.949219 61.859375 190.191406 L 56.417969 192.507812 C 55.855469 192.75 55.589844 193.402344 55.832031 193.964844 L 58.160156 199.386719 C 58.402344 199.949219 59.058594 200.210938 59.625 199.96875 L 65.066406 197.652344 C 65.628906 197.410156 65.894531 196.757812 65.652344 196.195312 Z M 57.820312 170.101562 C 57.394531 169.109375 56.238281 168.648438 55.238281 169.070312 L 45.648438 173.164062 C 44.648438 173.585938 44.1875 174.738281 44.617188 175.730469 L 48.722656 185.289062 C 49.148438 186.28125 50.304688 186.742188 51.300781 186.316406 L 60.894531 182.226562 C 61.894531 181.804688 62.355469 180.652344 61.929688 179.660156 Z M 57.820312 170.101562 " fill-opacity="1" fill-rule="nonzero"/></g><g fill="#051d40" fill-opacity="1"><g transform="translate(144.34835, 205.823746)"><g><path d="M 2.273438 0 L 10.316406 0 C 13.617188 0 16.316406 -2.699219 16.316406 -6.113281 C 16.316406 -7.703125 15.546875 -9.265625 14.210938 -10.175781 C 15.492188 -11.058594 16.03125 -12.648438 16.089844 -14.183594 C 16.171875 -17.765625 13.929688 -20.351562 10.316406 -20.351562 L 2.273438 -20.351562 Z M 6.367188 -16.289062 L 9.976562 -16.289062 C 11.144531 -16.289062 11.851562 -15.378906 11.851562 -14.242188 C 11.851562 -13.132812 11.144531 -12.195312 9.976562 -12.195312 L 6.367188 -12.195312 Z M 6.367188 -8.128906 L 9.976562 -8.128906 C 11.144531 -8.128906 12.023438 -7.25 12.023438 -6.113281 C 12.023438 -4.972656 11.144531 -4.066406 9.976562 -4.066406 L 6.367188 -4.066406 Z M 6.367188 -8.128906 "/></g></g></g><g fill="#051d40" fill-opacity="1"><g transform="translate(163.90068, 205.823746)"><g><path d="M 12.050781 0.285156 C 26.039062 0.285156 26.039062 -20.664062 12.050781 -20.664062 C -1.933594 -20.664062 -1.933594 0.285156 12.050781 0.285156 Z M 12.050781 -3.921875 C 3.921875 -3.921875 3.921875 -16.488281 12.050781 -16.488281 C 20.183594 -16.488281 20.183594 -3.921875 12.050781 -3.921875 Z M 12.050781 -3.921875 "/></g></g></g><g fill="#051d40" fill-opacity="1"><g transform="translate(189.875479, 205.823746)"><g><path d="M 12.050781 0.285156 C 26.039062 0.285156 26.039062 -20.664062 12.050781 -20.664062 C -1.933594 -20.664062 -1.933594 0.285156 12.050781 0.285156 Z M 12.050781 -3.921875 C 3.921875 -3.921875 3.921875 -16.488281 12.050781 -16.488281 C 20.183594 -16.488281 20.183594 -3.921875 12.050781 -3.921875 Z M 12.050781 -3.921875 "/></g></g></g><g fill="#051d40" fill-opacity="1"><g transform="translate(215.850275, 205.823746)"><g><path d="M 9.691406 0 L 9.691406 -16.257812 L 14.753906 -16.257812 L 14.753906 -20.296875 L 0.570312 -20.296875 L 0.570312 -16.257812 L 5.628906 -16.257812 L 5.628906 0 Z M 9.691406 0 "/></g></g></g><g fill="#051d40" fill-opacity="1"><g transform="translate(233.299676, 205.823746)"><g/></g></g><g fill="#051d40" fill-opacity="1"><g transform="translate(243.275147, 205.823746)"><g><path d="M 15.207031 -15.605469 L 15.691406 -19.785156 C 14.46875 -20.324219 13.105469 -20.578125 11.683594 -20.578125 C -2.074219 -20.578125 -2.101562 0.0585938 11.683594 0.0585938 C 13.105469 0.0585938 14.894531 -0.285156 16.144531 -0.796875 L 15.605469 -5.003906 C 14.835938 -4.605469 13.445312 -4.09375 11.683594 -4.09375 C 3.636719 -4.09375 3.636719 -16.488281 11.683594 -16.488281 C 13.445312 -16.488281 14.441406 -16.003906 15.207031 -15.605469 Z M 15.207031 -15.605469 "/></g></g></g><g fill="#051d40" fill-opacity="1"><g transform="translate(262.287536, 205.823746)"><g><path d="M 12.050781 0.285156 C 26.039062 0.285156 26.039062 -20.664062 12.050781 -20.664062 C -1.933594 -20.664062 -1.933594 0.285156 12.050781 0.285156 Z M 12.050781 -3.921875 C 3.921875 -3.921875 3.921875 -16.488281 12.050781 -16.488281 C 20.183594 -16.488281 20.183594 -3.921875 12.050781 -3.921875 Z M 12.050781 -3.921875 "/></g></g></g><g fill="#051d40" fill-opacity="1"><g transform="translate(288.262338, 205.823746)"><g><path d="M 12.050781 0.285156 C 26.039062 0.285156 26.039062 -20.664062 12.050781 -20.664062 C -1.933594 -20.664062 -1.933594 0.285156 12.050781 0.285156 Z M 12.050781 -3.921875 C 3.921875 -3.921875 3.921875 -16.488281 12.050781 -16.488281 C 20.183594 -16.488281 20.183594 -3.921875 12.050781 -3.921875 Z M 12.050781 -3.921875 "/></g></g></g><g fill="#051d40" fill-opacity="1"><g transform="translate(314.23714, 205.823746)"><g><path d="M 6.339844 0 L 6.339844 -7.761719 L 10.261719 -7.761719 C 18.136719 -7.761719 18.164062 -20.296875 10.261719 -20.296875 L 2.273438 -20.296875 L 2.273438 0 Z M 6.339844 -11.710938 L 6.339844 -16.257812 L 9.921875 -16.257812 C 12.648438 -16.257812 12.648438 -11.710938 9.921875 -11.710938 Z M 6.339844 -11.710938 "/></g></g></g><g fill="#0f135e" fill-opacity="1"><g transform="translate(180.874446, 221.355821)"><g><path d="M 4.171875 -7.191406 C 3.804688 -7.234375 3.636719 -7.234375 3.25 -7.234375 L 1.046875 -7.234375 L 1.046875 0 L 3.199219 0 C 3.585938 0 3.753906 0 4.121094 -0.0429688 C 5.796875 -0.25 7.035156 -1.574219 7.035156 -3.703125 C 7.035156 -5.859375 5.851562 -6.984375 4.171875 -7.191406 Z M 4.027344 -0.785156 C 3.796875 -0.746094 3.523438 -0.734375 3.144531 -0.734375 L 1.949219 -0.734375 L 1.949219 -6.5 L 3.199219 -6.5 C 3.574219 -6.5 3.847656 -6.488281 4.078125 -6.449219 C 5.304688 -6.25 6.050781 -5.304688 6.050781 -3.703125 C 6.050781 -1.992188 5.253906 -0.984375 4.027344 -0.785156 Z M 4.027344 -0.785156 "/></g></g></g><g fill="#0f135e" fill-opacity="1"><g transform="translate(189.120295, 221.355821)"><g><path d="M 5.335938 -2.9375 C 5.335938 -4.5625 4.488281 -5.703125 2.957031 -5.703125 C 1.4375 -5.703125 0.316406 -4.5625 0.316406 -2.757812 C 0.316406 -0.796875 1.394531 0.148438 2.839844 0.148438 C 3.984375 0.148438 5.042969 -0.449219 5.261719 -1.792969 L 4.320312 -1.792969 C 4.195312 -0.996094 3.605469 -0.546875 2.882812 -0.546875 C 2.066406 -0.546875 1.375 -1.039062 1.289062 -2.507812 L 5.316406 -2.507812 C 5.335938 -2.707031 5.335938 -2.851562 5.335938 -2.9375 Z M 2.9375 -5.011719 C 3.847656 -5.011719 4.339844 -4.351562 4.425781 -3.199219 L 1.300781 -3.199219 C 1.40625 -4.382812 2.054688 -5.011719 2.9375 -5.011719 Z M 2.9375 -5.011719 "/></g></g></g><g fill="#0f135e" fill-opacity="1"><g transform="translate(195.689906, 221.355821)"><g><path d="M 2.390625 -5.703125 C 1.246094 -5.703125 0.472656 -5.097656 0.472656 -4.078125 C 0.472656 -3.105469 1.269531 -2.695312 2.265625 -2.421875 C 3.199219 -2.171875 3.574219 -1.886719 3.574219 -1.351562 C 3.574219 -0.816406 3.09375 -0.546875 2.496094 -0.546875 C 1.855469 -0.546875 1.34375 -0.828125 1.195312 -1.636719 L 0.25 -1.636719 C 0.417969 -0.378906 1.289062 0.148438 2.433594 0.148438 C 3.605469 0.148438 4.5 -0.378906 4.5 -1.425781 C 4.5 -2.371094 3.890625 -2.871094 2.609375 -3.207031 C 1.855469 -3.40625 1.394531 -3.628906 1.394531 -4.183594 C 1.394531 -4.664062 1.6875 -5.011719 2.316406 -5.011719 C 2.96875 -5.011719 3.367188 -4.625 3.492188 -3.972656 L 4.433594 -3.972656 C 4.320312 -4.992188 3.636719 -5.703125 2.390625 -5.703125 Z M 2.390625 -5.703125 "/></g></g></g><g fill="#0f135e" fill-opacity="1"><g transform="translate(201.316626, 221.355821)"><g><path d="M 3.964844 0 L 4.863281 0 C 4.78125 -0.617188 4.761719 -0.996094 4.761719 -1.414062 L 4.761719 -3.503906 C 4.761719 -3.742188 4.75 -4.015625 4.730469 -4.234375 C 4.632812 -5.148438 4.078125 -5.703125 2.757812 -5.703125 C 1.53125 -5.703125 0.703125 -5.023438 0.617188 -3.835938 L 1.5625 -3.835938 C 1.625 -4.601562 2.003906 -5.011719 2.757812 -5.011719 C 3.503906 -5.011719 3.796875 -4.675781 3.835938 -4.164062 C 3.859375 -3.953125 3.859375 -3.734375 3.859375 -3.492188 L 3.859375 -3.34375 L 3.503906 -3.34375 C 1.320312 -3.34375 0.378906 -2.695312 0.378906 -1.4375 C 0.378906 -0.410156 1.164062 0.148438 2.171875 0.148438 C 2.707031 0.148438 3.1875 0.0625 3.566406 -0.199219 L 3.867188 -0.796875 Z M 2.472656 -0.546875 C 1.792969 -0.546875 1.363281 -0.839844 1.363281 -1.511719 C 1.363281 -2.464844 2.328125 -2.789062 3.859375 -2.671875 L 3.859375 -2.109375 C 3.859375 -1.101562 3.3125 -0.546875 2.472656 -0.546875 Z M 2.472656 -0.546875 "/></g></g></g><g fill="#0f135e" fill-opacity="1"><g transform="translate(207.697661, 221.355821)"><g><path d="M 2.957031 -5.683594 C 2.695312 -5.683594 2.410156 -5.589844 2.179688 -5.429688 L 1.675781 -4.6875 L 1.675781 -5.558594 L 0.777344 -5.558594 L 0.777344 0 L 1.675781 0 L 1.675781 -3.167969 C 1.675781 -4.433594 2.390625 -4.992188 3.335938 -4.929688 L 3.335938 -5.609375 C 3.230469 -5.660156 3.105469 -5.683594 2.957031 -5.683594 Z M 2.957031 -5.683594 "/></g></g></g><g fill="#0f135e" fill-opacity="1"><g transform="translate(211.972916, 221.355821)"><g><path d="M 3.070312 -5.703125 C 1.183594 -5.703125 0.316406 -4.351562 0.316406 -2.777344 C 0.316406 -1.214844 1.183594 0.148438 3.070312 0.148438 C 4.960938 0.148438 5.828125 -1.214844 5.828125 -2.777344 C 5.828125 -4.351562 4.960938 -5.703125 3.070312 -5.703125 Z M 3.070312 -0.546875 C 1.949219 -0.546875 1.300781 -1.476562 1.300781 -2.777344 C 1.300781 -4.089844 1.949219 -5.011719 3.070312 -5.011719 C 4.195312 -5.011719 4.84375 -4.089844 4.84375 -2.777344 C 4.84375 -1.476562 4.195312 -0.546875 3.070312 -0.546875 Z M 3.070312 -0.546875 "/></g></g></g><g fill="#0f135e" fill-opacity="1"><g transform="translate(218.930162, 221.355821)"><g><path d="M 1.636719 -7.707031 L 0.734375 -7.707031 L 0.734375 -1.5625 C 0.734375 -1.257812 0.734375 -1.015625 0.746094 -0.828125 C 0.777344 -0.125 1.164062 0.0429688 1.6875 0.0429688 C 1.898438 0.0429688 2.128906 0.03125 2.328125 0 L 2.328125 -0.648438 C 1.835938 -0.597656 1.667969 -0.714844 1.644531 -1.070312 C 1.636719 -1.246094 1.636719 -1.425781 1.636719 -1.59375 Z M 1.636719 -7.707031 "/></g></g></g><g fill="#0f135e" fill-opacity="1"><g transform="translate(222.335861, 221.355821)"><g><path d="M 1.636719 -7.707031 L 0.734375 -7.707031 L 0.734375 -1.5625 C 0.734375 -1.257812 0.734375 -1.015625 0.746094 -0.828125 C 0.777344 -0.125 1.164062 0.0429688 1.6875 0.0429688 C 1.898438 0.0429688 2.128906 0.03125 2.328125 0 L 2.328125 -0.648438 C 1.835938 -0.597656 1.667969 -0.714844 1.644531 -1.070312 C 1.636719 -1.246094 1.636719 -1.425781 1.636719 -1.59375 Z M 1.636719 -7.707031 "/></g></g></g><g fill="#0f135e" fill-opacity="1"><g transform="translate(225.741559, 221.355821)"><g><path d="M 3.070312 -5.703125 C 1.183594 -5.703125 0.316406 -4.351562 0.316406 -2.777344 C 0.316406 -1.214844 1.183594 0.148438 3.070312 0.148438 C 4.960938 0.148438 5.828125 -1.214844 5.828125 -2.777344 C 5.828125 -4.351562 4.960938 -5.703125 3.070312 -5.703125 Z M 3.070312 -0.546875 C 1.949219 -0.546875 1.300781 -1.476562 1.300781 -2.777344 C 1.300781 -4.089844 1.949219 -5.011719 3.070312 -5.011719 C 4.195312 -5.011719 4.84375 -4.089844 4.84375 -2.777344 C 4.84375 -1.476562 4.195312 -0.546875 3.070312 -0.546875 Z M 3.070312 -0.546875 "/></g></g></g><g fill="#0f135e" fill-opacity="1"><g transform="translate(232.698806, 221.355821)"><g/></g></g><g fill="#0f135e" fill-opacity="1"><g transform="translate(235.779732, 221.355821)"><g><path d="M 5.628906 -7.707031 L 4.730469 -7.707031 L 4.730469 -4.792969 L 4.363281 -5.335938 C 4.078125 -5.566406 3.492188 -5.703125 3.03125 -5.703125 C 1.59375 -5.703125 0.316406 -4.75 0.316406 -2.695312 C 0.316406 -1.070312 1.214844 0.148438 2.839844 0.148438 C 3.40625 0.148438 3.996094 -0.03125 4.308594 -0.292969 L 4.730469 -0.890625 L 4.730469 0 L 5.628906 0 Z M 2.976562 -0.546875 C 1.867188 -0.546875 1.300781 -1.542969 1.300781 -2.800781 C 1.300781 -4.257812 2.054688 -5.011719 3.03125 -5.011719 C 3.828125 -5.011719 4.730469 -4.464844 4.730469 -3.03125 L 4.730469 -2.726562 C 4.730469 -1.132812 3.902344 -0.546875 2.976562 -0.546875 Z M 2.976562 -0.546875 "/></g></g></g><g fill="#0f135e" fill-opacity="1"><g transform="translate(243.040796, 221.355821)"><g><path d="M 5.335938 -2.9375 C 5.335938 -4.5625 4.488281 -5.703125 2.957031 -5.703125 C 1.4375 -5.703125 0.316406 -4.5625 0.316406 -2.757812 C 0.316406 -0.796875 1.394531 0.148438 2.839844 0.148438 C 3.984375 0.148438 5.042969 -0.449219 5.261719 -1.792969 L 4.320312 -1.792969 C 4.195312 -0.996094 3.605469 -0.546875 2.882812 -0.546875 C 2.066406 -0.546875 1.375 -1.039062 1.289062 -2.507812 L 5.316406 -2.507812 C 5.335938 -2.707031 5.335938 -2.851562 5.335938 -2.9375 Z M 2.9375 -5.011719 C 3.847656 -5.011719 4.339844 -4.351562 4.425781 -3.199219 L 1.300781 -3.199219 C 1.40625 -4.382812 2.054688 -5.011719 2.9375 -5.011719 Z M 2.9375 -5.011719 "/></g></g></g><g fill="#0f135e" fill-opacity="1"><g transform="translate(249.610409, 221.355821)"><g/></g></g><g fill="#0f135e" fill-opacity="1"><g transform="translate(252.691335, 221.355821)"><g><path d="M 3.292969 -7.382812 C 1.960938 -7.382812 0.878906 -6.59375 0.878906 -5.347656 C 0.878906 -4.152344 1.773438 -3.636719 3.050781 -3.34375 C 4.320312 -3.050781 4.824219 -2.652344 4.824219 -1.773438 C 4.824219 -1.015625 4.152344 -0.566406 3.324219 -0.566406 C 2.378906 -0.566406 1.71875 -1.101562 1.511719 -2.054688 L 0.546875 -2.054688 C 0.703125 -0.660156 1.710938 0.148438 3.304688 0.148438 C 4.699219 0.148438 5.789062 -0.671875 5.789062 -1.941406 C 5.789062 -3.167969 4.992188 -3.816406 3.398438 -4.183594 C 2.296875 -4.433594 1.84375 -4.769531 1.84375 -5.558594 C 1.84375 -6.3125 2.453125 -6.667969 3.21875 -6.667969 C 4.132812 -6.667969 4.664062 -6.144531 4.75 -5.230469 L 5.714844 -5.230469 C 5.578125 -6.46875 4.792969 -7.382812 3.292969 -7.382812 Z M 3.292969 -7.382812 "/></g></g></g><g fill="#0f135e" fill-opacity="1"><g transform="translate(259.638099, 221.355821)"><g><path d="M 3.070312 -5.703125 C 1.183594 -5.703125 0.316406 -4.351562 0.316406 -2.777344 C 0.316406 -1.214844 1.183594 0.148438 3.070312 0.148438 C 4.960938 0.148438 5.828125 -1.214844 5.828125 -2.777344 C 5.828125 -4.351562 4.960938 -5.703125 3.070312 -5.703125 Z M 3.070312 -0.546875 C 1.949219 -0.546875 1.300781 -1.476562 1.300781 -2.777344 C 1.300781 -4.089844 1.949219 -5.011719 3.070312 -5.011719 C 4.195312 -5.011719 4.84375 -4.089844 4.84375 -2.777344 C 4.84375 -1.476562 4.195312 -0.546875 3.070312 -0.546875 Z M 3.070312 -0.546875 "/></g></g></g><g fill="#0f135e" fill-opacity="1"><g transform="translate(266.595345, 221.355821)"><g><path d="M 1.75 -6.625 C 1.824219 -7.078125 2.273438 -7.234375 2.957031 -7.109375 L 2.957031 -7.851562 C 2.769531 -7.882812 2.546875 -7.90625 2.316406 -7.90625 C 1.488281 -7.90625 0.945312 -7.453125 0.847656 -6.648438 C 0.828125 -6.457031 0.816406 -6.1875 0.816406 -5.976562 L 0.816406 -5.515625 L 0.21875 -5.515625 L 0.21875 -4.824219 L 0.816406 -4.824219 L 0.816406 0 L 1.71875 0 L 1.71875 -4.824219 L 2.863281 -4.824219 L 2.863281 -5.515625 L 1.71875 -5.515625 L 1.71875 -6.058594 C 1.71875 -6.21875 1.730469 -6.480469 1.75 -6.625 Z M 1.75 -6.625 "/></g></g></g><g fill="#0f135e" fill-opacity="1"><g transform="translate(270.451529, 221.355821)"><g><path d="M 1.855469 -4.824219 L 2.894531 -4.824219 L 2.894531 -5.515625 L 1.855469 -5.515625 L 1.855469 -6.804688 L 0.953125 -6.804688 L 0.953125 -5.515625 L 0.210938 -5.515625 L 0.210938 -4.824219 L 0.953125 -4.824219 L 0.953125 -1.582031 C 0.953125 -1.269531 0.953125 -1.039062 0.964844 -0.890625 C 1.015625 -0.199219 1.375 0.0820312 2.066406 0.0820312 C 2.316406 0.0820312 2.570312 0.0742188 2.832031 0.03125 L 2.832031 -0.628906 C 2.128906 -0.546875 1.910156 -0.660156 1.867188 -1.195312 C 1.855469 -1.34375 1.855469 -1.4375 1.855469 -1.625 Z M 1.855469 -4.824219 "/></g></g></g><g fill="#0f135e" fill-opacity="1"><g transform="translate(274.548679, 221.355821)"><g><path d="M 8.167969 -5.558594 L 7.203125 -5.558594 L 5.914062 -0.890625 L 4.675781 -5.558594 L 3.554688 -5.558594 L 2.339844 -0.859375 L 1.046875 -5.558594 L 0.0117188 -5.558594 L 1.78125 0 L 2.851562 0 L 4.089844 -4.675781 L 5.328125 0 L 6.394531 0 Z M 8.167969 -5.558594 "/></g></g></g><g fill="#0f135e" fill-opacity="1"><g transform="translate(283.590747, 221.355821)"><g><path d="M 3.964844 0 L 4.863281 0 C 4.78125 -0.617188 4.761719 -0.996094 4.761719 -1.414062 L 4.761719 -3.503906 C 4.761719 -3.742188 4.75 -4.015625 4.730469 -4.234375 C 4.632812 -5.148438 4.078125 -5.703125 2.757812 -5.703125 C 1.53125 -5.703125 0.703125 -5.023438 0.617188 -3.835938 L 1.5625 -3.835938 C 1.625 -4.601562 2.003906 -5.011719 2.757812 -5.011719 C 3.503906 -5.011719 3.796875 -4.675781 3.835938 -4.164062 C 3.859375 -3.953125 3.859375 -3.734375 3.859375 -3.492188 L 3.859375 -3.34375 L 3.503906 -3.34375 C 1.320312 -3.34375 0.378906 -2.695312 0.378906 -1.4375 C 0.378906 -0.410156 1.164062 0.148438 2.171875 0.148438 C 2.707031 0.148438 3.1875 0.0625 3.566406 -0.199219 L 3.867188 -0.796875 Z M 2.472656 -0.546875 C 1.792969 -0.546875 1.363281 -0.839844 1.363281 -1.511719 C 1.363281 -2.464844 2.328125 -2.789062 3.859375 -2.671875 L 3.859375 -2.109375 C 3.859375 -1.101562 3.3125 -0.546875 2.472656 -0.546875 Z M 2.472656 -0.546875 "/></g></g></g><g fill="#0f135e" fill-opacity="1"><g transform="translate(289.971778, 221.355821)"><g><path d="M 2.957031 -5.683594 C 2.695312 -5.683594 2.410156 -5.589844 2.179688 -5.429688 L 1.675781 -4.6875 L 1.675781 -5.558594 L 0.777344 -5.558594 L 0.777344 0 L 1.675781 0 L 1.675781 -3.167969 C 1.675781 -4.433594 2.390625 -4.992188 3.335938 -4.929688 L 3.335938 -5.609375 C 3.230469 -5.660156 3.105469 -5.683594 2.957031 -5.683594 Z M 2.957031 -5.683594 "/></g></g></g><g fill="#0f135e" fill-opacity="1"><g transform="translate(294.247027, 221.355821)"><g><path d="M 5.335938 -2.9375 C 5.335938 -4.5625 4.488281 -5.703125 2.957031 -5.703125 C 1.4375 -5.703125 0.316406 -4.5625 0.316406 -2.757812 C 0.316406 -0.796875 1.394531 0.148438 2.839844 0.148438 C 3.984375 0.148438 5.042969 -0.449219 5.261719 -1.792969 L 4.320312 -1.792969 C 4.195312 -0.996094 3.605469 -0.546875 2.882812 -0.546875 C 2.066406 -0.546875 1.375 -1.039062 1.289062 -2.507812 L 5.316406 -2.507812 C 5.335938 -2.707031 5.335938 -2.851562 5.335938 -2.9375 Z M 2.9375 -5.011719 C 3.847656 -5.011719 4.339844 -4.351562 4.425781 -3.199219 L 1.300781 -3.199219 C 1.40625 -4.382812 2.054688 -5.011719 2.9375 -5.011719 Z M 2.9375 -5.011719 "/></g></g></g></svg>